<svg width="505" height="136" viewBox="0 0 505 136" fill="none" xmlns="http://www.w3.org/2000/svg">
<rect x="21.5747" width="461.84" height="5.19991" fill="#451B0B"/>
<rect x="21.5747" y="129.99" width="461.84" height="5.19991" fill="#451B0B"/>
<rect x="483.425" y="5.20642" width="8.63252" height="5.19991" fill="#451B0B"/>
<rect width="8.63252" height="5.19991" transform="matrix(-1 0 0 1 21.5747 5.20642)" fill="#451B0B"/>
<rect x="492.064" y="10.4039" width="4.31626" height="5.19991" fill="#451B0B"/>
<rect width="4.31626" height="5.19991" transform="matrix(-1 0 0 1 12.9541 10.4039)" fill="#451B0B"/>
<rect x="496.369" y="15.5922" width="4.31626" height="5.19991" fill="#451B0B"/>
<rect width="4.31626" height="5.19991" transform="matrix(-1 0 0 1 8.64893 15.5922)" fill="#451B0B"/>
<rect x="500.684" y="20.7988" width="4.31626" height="93.5983" fill="#451B0B"/>
<rect width="4.31626" height="93.5983" transform="matrix(-1 0 0 1 4.31641 20.7988)" fill="#451B0B"/>
<rect x="496.369" y="114.397" width="4.31626" height="5.19991" fill="#451B0B"/>
<rect width="4.31626" height="5.19991" transform="matrix(-1 0 0 1 8.64893 114.397)" fill="#451B0B"/>
<rect x="492.064" y="119.604" width="4.31626" height="5.19991" fill="#451B0B"/>
<rect width="4.31626" height="5.19991" transform="matrix(-1 0 0 1 12.9541 119.604)" fill="#451B0B"/>
<rect x="483.425" y="124.792" width="8.63252" height="5.19991" fill="#451B0B"/>
<rect width="8.63252" height="5.19991" transform="matrix(-1 0 0 1 21.5747 124.792)" fill="#451B0B"/>
<rect x="21.5747" y="5.20642" width="461.84" height="124.798" fill="#BC8C61"/>
<rect x="483.425" y="10.4039" width="8.63252" height="114.398" fill="#BC8C61"/>
<rect x="492.064" y="15.5922" width="4.31626" height="103.998" fill="#BC8C61"/>
<rect x="496.369" y="20.7988" width="4.31626" height="93.5983" fill="#BC8C61"/>
<rect x="4.31641" y="20.7988" width="4.31626" height="93.5983" fill="#BC8C61"/>
<rect x="8.64893" y="15.5922" width="4.31626" height="103.998" fill="#BC8C61"/>
<rect x="12.9541" y="10.4039" width="8.63252" height="114.398" fill="#BC8C61"/>
<rect x="32.0923" y="11.5326" width="440.021" height="4.28228" fill="#B47C57"/>
<rect x="32.0923" y="118.589" width="440.021" height="4.28228" fill="#B47C57"/>
<rect x="472.099" y="15.8204" width="8.22469" height="4.28228" fill="#B47C57"/>
<rect width="8.22469" height="4.28228" transform="matrix(-1 0 0 1 32.0923 15.8204)" fill="#B47C57"/>
<rect x="480.332" y="20.09" width="4.11234" height="4.28228" fill="#B47C57"/>
<rect width="4.11234" height="4.28228" transform="matrix(-1 0 0 1 23.8589 20.09)" fill="#B47C57"/>
<rect x="484.44" y="24.3776" width="4.11234" height="4.28228" fill="#B47C57"/>
<rect width="4.11234" height="4.28228" transform="matrix(-1 0 0 1 19.7612 24.3776)" fill="#B47C57"/>
<rect x="488.556" y="28.6652" width="4.11234" height="77.081" fill="#B47C57"/>
<rect width="4.11234" height="77.081" transform="matrix(-1 0 0 1 15.6436 28.6652)" fill="#B47C57"/>
<rect x="484.44" y="105.735" width="4.11234" height="4.28228" fill="#B47C57"/>
<rect width="4.11234" height="4.28228" transform="matrix(-1 0 0 1 19.7612 105.735)" fill="#B47C57"/>
<rect x="480.332" y="110.023" width="4.11234" height="4.28228" fill="#B47C57"/>
<rect width="4.11234" height="4.28228" transform="matrix(-1 0 0 1 23.8589 110.023)" fill="#B47C57"/>
<rect x="472.099" y="114.31" width="8.22469" height="4.28228" fill="#B47C57"/>
<rect width="8.22469" height="4.28228" transform="matrix(-1 0 0 1 32.0923 114.31)" fill="#B47C57"/>
<rect x="32.0923" y="15.8204" width="440.021" height="102.775" fill="#FCBD80"/>
<rect x="472.099" y="20.09" width="8.22469" height="94.2101" fill="#FCBD80"/>
<rect x="480.332" y="24.3776" width="4.11234" height="85.6455" fill="#FCBD80"/>
<rect x="484.44" y="28.6652" width="4.11234" height="77.081" fill="#FCBD80"/>
<rect x="15.6436" y="28.6652" width="4.11234" height="77.081" fill="#FCBD80"/>
<rect x="19.7612" y="24.3776" width="4.11234" height="85.6455" fill="#FCBD80"/>
<rect x="23.8589" y="20.09" width="8.22469" height="94.2101" fill="#FCBD80"/>
<g filter="url(#filter0_d_26_3)">
<path d="M123.25 86.75V80.5H117V74.25H129.5V80.5H148.25V68H123.25V61.75H117V49.25H123.25V43H154.5V49.25H160.75V55.5H148.25V49.25H129.5V61.75H154.5V68H160.75V80.5H154.5V86.75H123.25ZM190.75 86.75V49.25H178.25V43H215.75V49.25H203.25V86.75H190.75ZM227 86.75V55.5H233.25V49.25H239.5V43H258.25V49.25H264.5V55.5H270.75V86.75H258.25V74.25H239.5V86.75H227ZM239.5 68H258.25V55.5H252V49.25H245.75V55.5H239.5V68ZM282 86.75V43H319.5V49.25H325.75V68H313.25V74.25H319.5V80.5H325.75V86.75H307V80.5H300.75V74.25H294.5V86.75H282ZM294.5 68H307V61.75H313.25V49.25H294.5V68ZM355.75 86.75V49.25H343.25V43H380.75V49.25H368.25V86.75H355.75Z" fill="black"/>
</g>
<defs>
<filter id="filter0_d_26_3" x="113" y="43" width="271.75" height="51.75" filterUnits="userSpaceOnUse" color-interpolation-filters="sRGB">
<feFlood flood-opacity="0" result="BackgroundImageFix"/>
<feColorMatrix in="SourceAlpha" type="matrix" values="0 0 0 0 0 0 0 0 0 0 0 0 0 0 0 0 0 0 127 0" result="hardAlpha"/>
<feOffset dy="4"/>
<feGaussianBlur stdDeviation="2"/>
<feComposite in2="hardAlpha" operator="out"/>
<feColorMatrix type="matrix" values="0 0 0 0 1 0 0 0 0 1 0 0 0 0 1 0 0 0 0.5 0"/>
<feBlend mode="normal" in2="BackgroundImageFix" result="effect1_dropShadow_26_3"/>
<feBlend mode="normal" in="SourceGraphic" in2="effect1_dropShadow_26_3" result="shape"/>
</filter>
</defs>
</svg>
