<svg width="505" height="135" viewBox="0 0 505 135" fill="none" xmlns="http://www.w3.org/2000/svg">
<rect x="21.5439" width="461.192" height="5.19261" fill="#451B0B"/>
<rect x="21.5439" y="129.807" width="461.192" height="5.19261" fill="#451B0B"/>
<rect x="482.747" y="5.1991" width="8.62042" height="5.19261" fill="#451B0B"/>
<rect width="8.62042" height="5.19261" transform="matrix(-1 0 0 1 21.5439 5.1991)" fill="#451B0B"/>
<rect x="491.374" y="10.3893" width="4.31021" height="5.19261" fill="#451B0B"/>
<rect width="4.31021" height="5.19261" transform="matrix(-1 0 0 1 12.936 10.3893)" fill="#451B0B"/>
<rect x="495.672" y="15.5704" width="4.31021" height="5.19261" fill="#451B0B"/>
<rect width="4.31021" height="5.19261" transform="matrix(-1 0 0 1 8.63721 15.5704)" fill="#451B0B"/>
<rect x="499.981" y="20.7696" width="4.31021" height="93.467" fill="#451B0B"/>
<rect width="4.31021" height="93.467" transform="matrix(-1 0 0 1 4.31055 20.7696)" fill="#451B0B"/>
<rect x="495.672" y="114.237" width="4.31021" height="5.19261" fill="#451B0B"/>
<rect width="4.31021" height="5.19261" transform="matrix(-1 0 0 1 8.63721 114.237)" fill="#451B0B"/>
<rect x="491.374" y="119.436" width="4.31021" height="5.19261" fill="#451B0B"/>
<rect width="4.31021" height="5.19261" transform="matrix(-1 0 0 1 12.936 119.436)" fill="#451B0B"/>
<rect x="482.747" y="124.617" width="8.62042" height="5.19261" fill="#451B0B"/>
<rect width="8.62042" height="5.19261" transform="matrix(-1 0 0 1 21.5439 124.617)" fill="#451B0B"/>
<rect x="21.5439" y="5.1991" width="461.192" height="124.623" fill="#BC8C61"/>
<rect x="482.747" y="10.3893" width="8.62042" height="114.237" fill="#BC8C61"/>
<rect x="491.374" y="15.5704" width="4.31021" height="103.852" fill="#BC8C61"/>
<rect x="495.672" y="20.7696" width="4.31021" height="93.467" fill="#BC8C61"/>
<rect x="4.31055" y="20.7696" width="4.31021" height="93.467" fill="#BC8C61"/>
<rect x="8.63721" y="15.5704" width="4.31021" height="103.852" fill="#BC8C61"/>
<rect x="12.936" y="10.3893" width="8.62042" height="114.237" fill="#BC8C61"/>
<rect x="32.0474" y="11.5164" width="439.404" height="4.27627" fill="#B47C57"/>
<rect x="32.0474" y="118.422" width="439.404" height="4.27627" fill="#B47C57"/>
<rect x="471.436" y="15.7982" width="8.21315" height="4.27627" fill="#B47C57"/>
<rect width="8.21315" height="4.27627" transform="matrix(-1 0 0 1 32.0474 15.7982)" fill="#B47C57"/>
<rect x="479.658" y="20.0618" width="4.10658" height="4.27627" fill="#B47C57"/>
<rect width="4.10658" height="4.27627" transform="matrix(-1 0 0 1 23.8257 20.0618)" fill="#B47C57"/>
<rect x="483.76" y="24.3433" width="4.10658" height="4.27627" fill="#B47C57"/>
<rect width="4.10658" height="4.27627" transform="matrix(-1 0 0 1 19.7334 24.3433)" fill="#B47C57"/>
<rect x="487.871" y="28.625" width="4.10658" height="76.9728" fill="#B47C57"/>
<rect width="4.10658" height="76.9728" transform="matrix(-1 0 0 1 15.6216 28.625)" fill="#B47C57"/>
<rect x="483.76" y="105.586" width="4.10658" height="4.27627" fill="#B47C57"/>
<rect width="4.10658" height="4.27627" transform="matrix(-1 0 0 1 19.7334 105.586)" fill="#B47C57"/>
<rect x="479.658" y="109.868" width="4.10658" height="4.27627" fill="#B47C57"/>
<rect width="4.10658" height="4.27627" transform="matrix(-1 0 0 1 23.8257 109.868)" fill="#B47C57"/>
<rect x="471.436" y="114.15" width="8.21315" height="4.27627" fill="#B47C57"/>
<rect width="8.21315" height="4.27627" transform="matrix(-1 0 0 1 32.0474 114.15)" fill="#B47C57"/>
<rect x="32.0474" y="15.7982" width="439.404" height="102.63" fill="#FCBD80"/>
<rect x="471.436" y="20.0618" width="8.21315" height="94.0779" fill="#FCBD80"/>
<rect x="479.658" y="24.3433" width="4.10658" height="85.5254" fill="#FCBD80"/>
<rect x="483.76" y="28.625" width="4.10658" height="76.9728" fill="#FCBD80"/>
<rect x="15.6216" y="28.625" width="4.10658" height="76.9728" fill="#FCBD80"/>
<rect x="19.7334" y="24.3433" width="4.10658" height="85.5254" fill="#FCBD80"/>
<rect x="23.8257" y="20.0618" width="8.21315" height="94.0779" fill="#FCBD80"/>
<g filter="url(#filter0_d_26_4)">
<path d="M117 91.75V60.5H123.25V54.25H129.5V48H148.25V54.25H154.5V60.5H160.75V91.75H148.25V79.25H129.5V91.75H117ZM129.5 73H148.25V60.5H142V54.25H135.75V60.5H129.5V73ZM172 91.75V48H209.5V54.25H215.75V66.75H209.5V73H215.75V85.5H209.5V91.75H172ZM184.5 66.75H203.25V54.25H184.5V66.75ZM184.5 85.5H203.25V73H184.5V85.5ZM233.25 91.75V85.5H227V54.25H233.25V48H264.5V54.25H270.75V85.5H264.5V91.75H233.25ZM239.5 85.5H258.25V54.25H239.5V85.5ZM288.25 91.75V85.5H282V48H294.5V85.5H313.25V48H325.75V85.5H319.5V91.75H288.25ZM355.75 91.75V54.25H343.25V48H380.75V54.25H368.25V91.75H355.75Z" fill="black"/>
</g>
<defs>
<filter id="filter0_d_26_4" x="113" y="48" width="271.75" height="51.75" filterUnits="userSpaceOnUse" color-interpolation-filters="sRGB">
<feFlood flood-opacity="0" result="BackgroundImageFix"/>
<feColorMatrix in="SourceAlpha" type="matrix" values="0 0 0 0 0 0 0 0 0 0 0 0 0 0 0 0 0 0 127 0" result="hardAlpha"/>
<feOffset dy="4"/>
<feGaussianBlur stdDeviation="2"/>
<feComposite in2="hardAlpha" operator="out"/>
<feColorMatrix type="matrix" values="0 0 0 0 1 0 0 0 0 1 0 0 0 0 1 0 0 0 0.5 0"/>
<feBlend mode="normal" in2="BackgroundImageFix" result="effect1_dropShadow_26_4"/>
<feBlend mode="normal" in="SourceGraphic" in2="effect1_dropShadow_26_4" result="shape"/>
</filter>
</defs>
</svg>
