<svg width="356" height="108" viewBox="0 0 356 108" fill="none" xmlns="http://www.w3.org/2000/svg">
<rect x="15.209" width="325.575" height="4.15409" fill="#451B0B"/>
<rect x="15.209" y="103.846" width="325.575" height="4.15409" fill="#451B0B"/>
<rect x="340.79" y="4.1593" width="6.08551" height="4.15409" fill="#451B0B"/>
<rect width="6.08551" height="4.15409" transform="matrix(-1 0 0 1 15.209 4.1593)" fill="#451B0B"/>
<rect x="346.88" y="8.3114" width="3.04275" height="4.15409" fill="#451B0B"/>
<rect width="3.04275" height="4.15409" transform="matrix(-1 0 0 1 9.13281 8.3114)" fill="#451B0B"/>
<rect x="349.916" y="12.4563" width="3.04275" height="4.15409" fill="#451B0B"/>
<rect width="3.04275" height="4.15409" transform="matrix(-1 0 0 1 6.09766 12.4563)" fill="#451B0B"/>
<rect x="352.958" y="16.6157" width="3.04275" height="74.7736" fill="#451B0B"/>
<rect width="3.04275" height="74.7736" transform="matrix(-1 0 0 1 3.04297 16.6157)" fill="#451B0B"/>
<rect x="349.916" y="91.3895" width="3.04275" height="4.15409" fill="#451B0B"/>
<rect width="3.04275" height="4.15409" transform="matrix(-1 0 0 1 6.09766 91.3895)" fill="#451B0B"/>
<rect x="346.88" y="95.5489" width="3.04275" height="4.15409" fill="#451B0B"/>
<rect width="3.04275" height="4.15409" transform="matrix(-1 0 0 1 9.13281 95.5489)" fill="#451B0B"/>
<rect x="340.79" y="99.6938" width="6.08551" height="4.15409" fill="#451B0B"/>
<rect width="6.08551" height="4.15409" transform="matrix(-1 0 0 1 15.209 99.6938)" fill="#451B0B"/>
<rect x="15.209" y="4.1593" width="325.575" height="99.6982" fill="#BC8C61"/>
<rect x="340.79" y="8.3114" width="6.08551" height="91.39" fill="#BC8C61"/>
<rect x="346.88" y="12.4563" width="3.04275" height="83.0818" fill="#BC8C61"/>
<rect x="349.916" y="16.6157" width="3.04275" height="74.7736" fill="#BC8C61"/>
<rect x="3.04297" y="16.6157" width="3.04275" height="74.7736" fill="#BC8C61"/>
<rect x="6.09766" y="12.4563" width="3.04275" height="83.0818" fill="#BC8C61"/>
<rect x="9.13281" y="8.3114" width="6.08551" height="91.39" fill="#BC8C61"/>
<rect x="22.624" y="9.21313" width="310.193" height="3.42102" fill="#B47C57"/>
<rect x="22.624" y="94.738" width="310.193" height="3.42102" fill="#B47C57"/>
<rect x="332.808" y="12.6385" width="5.798" height="3.42102" fill="#B47C57"/>
<rect width="5.798" height="3.42102" transform="matrix(-1 0 0 1 22.624 12.6385)" fill="#B47C57"/>
<rect x="338.61" y="16.0494" width="2.899" height="3.42102" fill="#B47C57"/>
<rect width="2.899" height="3.42102" transform="matrix(-1 0 0 1 16.8203 16.0494)" fill="#B47C57"/>
<rect x="341.508" y="19.4747" width="2.899" height="3.42102" fill="#B47C57"/>
<rect width="2.899" height="3.42102" transform="matrix(-1 0 0 1 13.9316 19.4747)" fill="#B47C57"/>
<rect x="344.408" y="22.9" width="2.899" height="61.5783" fill="#B47C57"/>
<rect width="2.899" height="61.5783" transform="matrix(-1 0 0 1 11.0293 22.9)" fill="#B47C57"/>
<rect x="341.508" y="84.4692" width="2.899" height="3.42102" fill="#B47C57"/>
<rect width="2.899" height="3.42102" transform="matrix(-1 0 0 1 13.9316 84.4692)" fill="#B47C57"/>
<rect x="338.61" y="87.8945" width="2.899" height="3.42102" fill="#B47C57"/>
<rect width="2.899" height="3.42102" transform="matrix(-1 0 0 1 16.8203 87.8945)" fill="#B47C57"/>
<rect x="332.808" y="91.3199" width="5.798" height="3.42102" fill="#B47C57"/>
<rect width="5.798" height="3.42102" transform="matrix(-1 0 0 1 22.624 91.3199)" fill="#B47C57"/>
<rect x="22.624" y="12.6385" width="310.193" height="82.1044" fill="#FCBD80"/>
<rect x="332.808" y="16.0494" width="5.798" height="75.2623" fill="#FCBD80"/>
<rect x="338.61" y="19.4747" width="2.899" height="68.4203" fill="#FCBD80"/>
<rect x="341.508" y="22.9" width="2.899" height="61.5783" fill="#FCBD80"/>
<rect x="11.0293" y="22.9" width="2.899" height="61.5783" fill="#FCBD80"/>
<rect x="13.9316" y="19.4747" width="2.899" height="68.4203" fill="#FCBD80"/>
<rect x="16.8203" y="16.0494" width="5.798" height="75.2623" fill="#FCBD80"/>
</svg>
