<svg width="1409" height="38" viewBox="0 0 1409 38" fill="none" xmlns="http://www.w3.org/2000/svg">
<g filter="url(#filter0_d_3_581)">
<path d="M4 26.25V0H26.5V3.75H30.25V15H26.5V18.75H11.5V26.25H4ZM11.5 15H22.75V3.75H11.5V15ZM40.75 26.25V22.5H48.25V3.75H40.75V0H63.25V3.75H55.75V22.5H63.25V26.25H40.75ZM77.5 26.25V22.5H73.75V18.75H70V7.5H73.75V3.75H77.5V0H92.5V3.75H96.25V7.5H88.75V3.75H81.25V7.5H77.5V18.75H81.25V22.5H88.75V18.75H96.25V22.5H92.5V26.25H77.5ZM103 26.25V0H110.5V11.25H114.25V7.5H118V3.75H121.75V0H129.25V3.75H125.5V7.5H121.75V11.25H118V15H121.75V18.75H125.5V22.5H129.25V26.25H118V22.5H114.25V18.75H110.5V26.25H103ZM180.25 26.25V15H176.5V11.25H172.75V0H180.25V11.25H187.75V0H195.25V11.25H191.5V15H187.75V26.25H180.25ZM205.75 26.25V22.5H202V3.75H205.75V0H224.5V3.75H228.25V22.5H224.5V26.25H205.75ZM209.5 22.5H220.75V3.75H209.5V22.5ZM238.75 26.25V22.5H235V0H242.5V22.5H253.75V0H261.25V22.5H257.5V26.25H238.75ZM268 26.25V0H290.5V3.75H294.25V15H286.75V18.75H290.5V22.5H294.25V26.25H283V22.5H279.25V18.75H275.5V26.25H268ZM275.5 15H283V11.25H286.75V3.75H275.5V15ZM334 26.25V7.5H337.75V3.75H341.5V0H352.75V3.75H356.5V7.5H360.25V26.25H352.75V18.75H341.5V26.25H334ZM341.5 15H352.75V7.5H349V3.75H345.25V7.5H341.5V15ZM370.75 26.25V0H378.25V22.5H393.25V26.25H370.75ZM407.5 26.25V22.5H403.75V18.75H400V7.5H403.75V3.75H407.5V0H426.25V3.75H411.25V7.5H407.5V18.75H411.25V22.5H418.75V15H415V11.25H426.25V26.25H407.5ZM436.75 26.25V22.5H433V3.75H436.75V0H455.5V3.75H459.25V22.5H455.5V26.25H436.75ZM440.5 22.5H451.75V3.75H440.5V22.5ZM466 26.25V0H488.5V3.75H492.25V15H484.75V18.75H488.5V22.5H492.25V26.25H481V22.5H477.25V18.75H473.5V26.25H466ZM473.5 15H481V11.25H484.75V3.75H473.5V15ZM502.75 26.25V22.5H510.25V3.75H502.75V0H525.25V3.75H517.75V22.5H525.25V26.25H502.75ZM543.25 26.25V3.75H535.75V0H558.25V3.75H550.75V26.25H543.25ZM565 26.25V0H572.5V11.25H583.75V0H591.25V26.25H583.75V15H572.5V26.25H565ZM598 26.25V0H605.5V3.75H609.25V7.5H613V3.75H616.75V0H624.25V26.25H616.75V11.25H613V18.75H609.25V11.25H605.5V26.25H598ZM634.75 30V26.25H638.5V18.75H646V26.25H642.25V30H634.75ZM700.75 26.25V0H708.25V22.5H723.25V26.25H700.75ZM730 26.25V0H756.25V3.75H737.5V11.25H752.5V15H737.5V22.5H756.25V26.25H730ZM774.25 26.25V3.75H766.75V0H789.25V3.75H781.75V26.25H774.25ZM840.25 26.25V3.75H832.75V0H855.25V3.75H847.75V26.25H840.25ZM862 26.25V0H869.5V11.25H880.75V0H888.25V26.25H880.75V15H869.5V26.25H862ZM895 26.25V0H921.25V3.75H902.5V11.25H917.5V15H902.5V22.5H921.25V26.25H895ZM961 26.25V7.5H964.75V3.75H968.5V0H979.75V3.75H983.5V7.5H987.25V26.25H979.75V18.75H968.5V26.25H961ZM968.5 15H979.75V7.5H976V3.75H972.25V7.5H968.5V15ZM997.75 26.25V0H1005.25V22.5H1020.25V26.25H997.75ZM1034.5 26.25V22.5H1030.75V18.75H1027V7.5H1030.75V3.75H1034.5V0H1049.5V3.75H1053.25V7.5H1045.75V3.75H1038.25V7.5H1034.5V18.75H1038.25V22.5H1045.75V18.75H1053.25V22.5H1049.5V26.25H1034.5ZM1060 26.25V0H1067.5V11.25H1078.75V0H1086.25V26.25H1078.75V15H1067.5V26.25H1060ZM1093 26.25V0H1119.25V3.75H1100.5V11.25H1115.5V15H1100.5V22.5H1119.25V26.25H1093ZM1126 26.25V0H1133.5V3.75H1137.25V7.5H1141V3.75H1144.75V0H1152.25V26.25H1144.75V11.25H1141V18.75H1137.25V11.25H1133.5V26.25H1126ZM1170.25 26.25V15H1166.5V11.25H1162.75V0H1170.25V11.25H1177.75V0H1185.25V11.25H1181.5V15H1177.75V26.25H1170.25ZM1225 26.25V0H1247.5V3.75H1251.25V11.25H1247.5V15H1251.25V22.5H1247.5V26.25H1225ZM1232.5 11.25H1243.75V3.75H1232.5V11.25ZM1232.5 22.5H1243.75V15H1232.5V22.5ZM1258 26.25V0H1284.25V3.75H1265.5V11.25H1280.5V15H1265.5V22.5H1284.25V26.25H1258ZM1298.5 26.25V22.5H1294.75V18.75H1291V7.5H1294.75V3.75H1298.5V0H1317.25V3.75H1302.25V7.5H1298.5V18.75H1302.25V22.5H1309.75V15H1306V11.25H1317.25V26.25H1298.5ZM1327.75 26.25V22.5H1335.25V3.75H1327.75V0H1350.25V3.75H1342.75V22.5H1350.25V26.25H1327.75ZM1357 26.25V0H1364.5V3.75H1368.25V7.5H1372V11.25H1375.75V0H1383.25V26.25H1375.75V18.75H1372V15H1368.25V11.25H1364.5V26.25H1357ZM1397.5 26.25V18.75H1405V26.25H1397.5Z" fill="white"/>
</g>
<defs>
<filter id="filter0_d_3_581" x="0" y="0" width="1409" height="38" filterUnits="userSpaceOnUse" color-interpolation-filters="sRGB">
<feFlood flood-opacity="0" result="BackgroundImageFix"/>
<feColorMatrix in="SourceAlpha" type="matrix" values="0 0 0 0 0 0 0 0 0 0 0 0 0 0 0 0 0 0 127 0" result="hardAlpha"/>
<feOffset dy="4"/>
<feGaussianBlur stdDeviation="2"/>
<feComposite in2="hardAlpha" operator="out"/>
<feColorMatrix type="matrix" values="0 0 0 0 1 0 0 0 0 1 0 0 0 0 1 0 0 0 0.6 0"/>
<feBlend mode="normal" in2="BackgroundImageFix" result="effect1_dropShadow_3_581"/>
<feBlend mode="normal" in="SourceGraphic" in2="effect1_dropShadow_3_581" result="shape"/>
</filter>
</defs>
</svg>
